HIERARCHY
ROOT joint_Root
{
	OFFSET 0.0 0.0 0.0
	CHANNELS 6 Xposition Yposition Zposition Zrotation Xrotation Yrotation 
	JOINT Hips
	{
		OFFSET 4.5925 91.4895 -427.239
		CHANNELS 6 Xposition Yposition Zposition Zrotation Xrotation Yrotation 
		JOINT Spine
		{
			OFFSET 15.7357 0.0 0.0
			CHANNELS 6 Xposition Yposition Zposition Zrotation Xrotation Yrotation 
			JOINT Chest
			{
				OFFSET 8.98455 -0.406207 0.0
				CHANNELS 6 Xposition Yposition Zposition Zrotation Xrotation Yrotation 
				JOINT Neck
				{
					OFFSET 16.3773 0.0 0.0
					CHANNELS 6 Xposition Yposition Zposition Zrotation Xrotation Yrotation 
					JOINT Head
					{
						OFFSET 6.45672 0.0 0.0
						CHANNELS 6 Xposition Yposition Zposition Zrotation Xrotation Yrotation 
						End Site
						{
							OFFSET 0.0 0.0 0.0
						}
					}
				}
				JOINT Shoulder_L
				{
					OFFSET 12.9942 -0.242716 4.98039
					CHANNELS 6 Xposition Yposition Zposition Zrotation Xrotation Yrotation 
					JOINT UpperArm_L
					{
						OFFSET 5.34809 0.0 0.0
						CHANNELS 6 Xposition Yposition Zposition Zrotation Xrotation Yrotation 
						JOINT LowerArm_L
						{
							OFFSET 24.3286 1.87007e-05 0.0
							CHANNELS 6 Xposition Yposition Zposition Zrotation Xrotation Yrotation 
							JOINT Hand_L
							{
								OFFSET 22.2916 0.0 0.0
								CHANNELS 6 Xposition Yposition Zposition Zrotation Xrotation Yrotation 
								End Site
								{
									OFFSET 0.0 0.0 0.0
								}
							}
						}
					}
				}
				JOINT Shoulder_R
				{
					OFFSET 12.9945 -0.242716 -4.98039
					CHANNELS 6 Xposition Yposition Zposition Zrotation Xrotation Yrotation 
					JOINT UpperArm_R
					{
						OFFSET -5.34813 0.0 0.0
						CHANNELS 6 Xposition Yposition Zposition Zrotation Xrotation Yrotation 
						JOINT LowerArm_R
						{
							OFFSET -24.3289 0.000322201 0.0
							CHANNELS 6 Xposition Yposition Zposition Zrotation Xrotation Yrotation 
							JOINT Hand_R
							{
								OFFSET -22.2915 -0.000108084 0.0
								CHANNELS 6 Xposition Yposition Zposition Zrotation Xrotation Yrotation 
								End Site
								{
									OFFSET 0.0 0.0 0.0
								}
							}
						}
					}
				}
			}
		}
		JOINT UpperLeg_L
		{
			OFFSET -2.19248 -6.46944 0.0
			CHANNELS 6 Xposition Yposition Zposition Zrotation Xrotation Yrotation 
			JOINT LowerLeg_L
			{
				OFFSET 39.0811 0.0 -1.23785e-05
				CHANNELS 6 Xposition Yposition Zposition Zrotation Xrotation Yrotation 
				JOINT Foot_L
				{
					OFFSET 40.9854 0.0 -1.26872e-05
					CHANNELS 6 Xposition Yposition Zposition Zrotation Xrotation Yrotation 
					JOINT Toes_L
					{
						OFFSET 11.7543 0.0 0.0
						CHANNELS 6 Xposition Yposition Zposition Zrotation Xrotation Yrotation 
						End Site
						{
							OFFSET 0.0 0.0 0.0
						}
					}
				}
			}
		}
		JOINT UpperLeg_R
		{
			OFFSET -2.19251 6.46944 0.0
			CHANNELS 6 Xposition Yposition Zposition Zrotation Xrotation Yrotation 
			JOINT LowerLeg_R
			{
				OFFSET -39.0811 -0.00228153 -0.0401928
				CHANNELS 6 Xposition Yposition Zposition Zrotation Xrotation Yrotation 
				JOINT Foot_R
				{
					OFFSET -40.9854 0.0 0.0
					CHANNELS 6 Xposition Yposition Zposition Zrotation Xrotation Yrotation 
					JOINT Toes_R
					{
						OFFSET -11.7543 0.0 0.0
						CHANNELS 6 Xposition Yposition Zposition Zrotation Xrotation Yrotation 
						End Site
						{
							OFFSET 0.0 0.0 0.0
						}
					}
				}
			}
		}
	}
}
MOTION
Frames:	4
Frame Time:	0.0333333
0.000000 0.000000 0.000000 0.000000 0.000000 -0.000000 -170.124000 89.157800 187.244000 4.909790 86.215600 80.704000 15.735700 0.000005 -0.000001 51.293300 81.785900 -48.954600 8.984550 -0.406207 -0.000000 5.337520 -10.300800 5.163230 16.377300 -0.000001 -0.000001 2.468180 -3.824320 2.607650 6.456720 -0.000001 -0.000000 -1.230020 0.919243 5.380540 12.994200 -0.242716 4.980390 -87.085900 -8.406340 -70.801800 5.348090 -0.000007 -0.000001 -54.148000 24.590700 -60.200500 24.328600 0.000019 0.000005 6.254040 -3.452760 -118.793000 22.291600 -0.000001 0.000005 13.524300 5.488600 -6.081000 12.994500 -0.242716 -4.980390 91.849500 -5.701100 -71.992700 -5.348130 -0.000001 -0.000004 -68.003400 37.510100 40.700100 -24.328900 0.000322 -0.000009 -12.148700 -2.456090 -78.736600 -22.291500 -0.000108 -0.000004 9.106910 5.596210 -11.106300 -2.192480 -6.469440 -0.000000 -176.053000 -17.210700 6.160550 39.081100 -0.000007 -0.000012 -0.023126 0.058001 21.738200 40.985400 -0.000006 -0.000013 5.548390 8.558140 -72.512800 11.754300 -0.000000 0.000003 -0.391514 -0.556388 -25.921800 -2.192510 6.469440 -0.000001 -175.285000 6.824080 140.768000 -39.081100 -0.002282 -0.040193 -0.019980 0.022976 45.331800 -40.985400 0.000008 0.000006 1.045880 -2.043800 -60.126600 -11.754300 -0.000006 -0.000006 -0.024524 -0.191168 -24.393100
0.000000 0.000000 0.000000 0.000000 0.000000 -0.000000 -165.430000 88.035000 187.387000 -1.514810 86.991800 87.130000 15.735700 0.000005 -0.000001 49.747200 81.623500 -47.468600 8.984550 -0.406207 -0.000000 5.316250 -10.851000 5.067950 16.377300 -0.000001 -0.000001 1.822660 -4.388250 2.930300 6.456720 -0.000001 -0.000000 -1.387830 0.508631 6.489240 12.994200 -0.242716 4.980390 -87.451500 -7.444330 -71.041500 5.348090 -0.000007 -0.000001 -54.250900 27.319300 -57.076300 24.328600 0.000019 0.000005 8.200180 -4.358140 -117.807000 22.291600 -0.000001 0.000005 13.360900 5.489030 -6.097500 12.994500 -0.242716 -4.980390 91.207300 -3.672460 -71.784500 -5.348130 -0.000001 -0.000004 -66.466800 36.187500 38.031200 -24.328900 0.000322 -0.000009 -15.000300 -2.245570 -81.676500 -22.291500 -0.000108 -0.000004 11.678800 5.616680 -12.372600 -2.192480 -6.469440 -0.000000 -175.303000 -16.659700 7.656660 39.081100 -0.000007 -0.000012 -0.036137 0.077169 25.093100 40.985400 -0.000006 -0.000013 4.485590 10.618600 -71.981400 11.754300 -0.000000 0.000003 -0.059802 -0.331145 -30.251700 -2.192510 6.469440 -0.000001 -171.797000 13.982500 140.389000 -39.081100 -0.002282 -0.040193 -0.041449 0.059232 37.061800 -40.985400 0.000008 0.000006 -3.896800 0.489950 -59.942600 -11.754300 -0.000006 -0.000006 -0.024889 -0.193001 -24.468900
0.000000 0.000000 0.000000 0.000000 0.000000 -0.000000 -160.134000 86.971700 187.782000 -25.216700 87.157100 110.358000 15.735700 0.000005 -0.000001 47.845600 81.795600 -45.320400 8.984550 -0.406207 -0.000000 4.719260 -11.060300 5.514080 16.377300 -0.000001 -0.000001 1.481920 -5.423280 3.267160 6.456720 -0.000001 -0.000000 -1.428040 -0.258493 6.520890 12.994200 -0.242716 4.980390 -88.430100 -4.990360 -72.517100 5.348090 -0.000007 -0.000001 -56.124500 32.073400 -48.350900 24.328600 0.000019 0.000005 11.294200 -5.336000 -114.974000 22.291600 -0.000001 0.000005 13.873000 5.495460 -6.350890 12.994500 -0.242716 -4.980390 89.904800 0.274551 -70.987600 -5.348130 -0.000001 -0.000004 -64.126800 36.722000 33.276300 -24.328900 0.000322 -0.000009 -19.643100 -2.536850 -82.928800 -22.291500 -0.000108 -0.000004 14.102600 5.636450 -13.807600 -2.192480 -6.469440 -0.000000 -174.591000 -14.279800 7.687000 39.081100 -0.000007 -0.000012 -0.033205 0.057729 29.907400 40.985400 -0.000006 -0.000013 2.590580 11.532800 -69.454000 11.754300 -0.000000 0.000003 -0.137737 -0.529939 -38.916700 -2.192510 6.469440 -0.000001 -166.615000 22.332000 137.852000 -39.081100 -0.002282 -0.040193 -0.034901 0.048705 38.096200 -40.985400 0.000008 0.000006 1.909430 4.520750 -56.892500 -11.754300 -0.000006 -0.000006 -0.024615 -0.191628 -24.412100
0.000000 0.000000 0.000000 0.000000 0.000000 -0.000000 -153.925000 85.997600 188.128000 -49.741500 86.290100 135.310000 15.735700 0.000005 -0.000001 47.462700 82.026000 -44.491400 8.984550 -0.406207 -0.000000 4.338490 -10.854300 6.362390 16.377300 -0.000001 -0.000001 1.083540 -6.529020 3.081630 6.456720 -0.000001 -0.000000 -1.308200 -1.304270 5.966740 12.994200 -0.242716 4.980390 -89.753000 -0.850356 -73.820300 5.348090 -0.000007 -0.000001 -59.306300 36.710700 -35.024400 24.328600 0.000019 0.000005 14.325700 -4.829980 -108.256000 22.291600 -0.000001 0.000005 14.981800 5.504010 -6.692990 12.994500 -0.242716 -4.980390 87.760600 6.052230 -69.656800 -5.348130 -0.000001 -0.000004 -60.001100 38.883100 26.966800 -24.328900 0.000322 -0.000009 -23.605100 -2.485010 -84.331400 -22.291500 -0.000108 -0.000004 16.808000 5.652670 -15.266000 -2.192480 -6.469440 -0.000000 -173.799000 -11.371100 6.888380 39.081100 -0.000007 -0.000012 0.006605 -0.008721 37.131100 40.985400 -0.000006 -0.000013 0.885446 10.871600 -62.453900 11.754300 -0.000000 0.000003 -0.298630 -0.788212 -51.278000 -2.192510 6.469440 -0.000001 -166.757000 24.777400 138.743000 -39.081100 -0.002282 -0.040193 -0.110483 0.115476 44.568500 -40.985400 0.000008 0.000006 10.467800 2.540800 -62.382800 -11.754300 -0.000006 -0.000006 -0.013264 -0.126592 -21.735600
